<?xml version="1.0" encoding="iso-8859-1"?>
<!-- Generator: Adobe Illustrator 19.0.0, SVG Export Plug-In . SVG Version: 6.00 Build 0)  -->
<svg version="1.1" id="Capa_1" xmlns="http://www.w3.org/2000/svg" xmlns:xlink="http://www.w3.org/1999/xlink" x="0px" y="0px"
	 viewBox="0 0 512.001 512.001" style="enable-background:new 0 0 512.001 512.001;" xml:space="preserve">
<path style="fill:#FFCDAC;" d="M406.001,165.964h-25v55.987h25c22.091,0,40,17.909,40,40v89.982c0,22.091-17.909,40-40,40h-25
	v55.987h25c53.019,0,96-42.981,96-96v-89.956C502.001,208.944,459.02,165.964,406.001,165.964z"/>
<path style="fill:#F5B955;" d="M41.001,140.629v312.462c0,27.004,21.891,48.895,48.895,48.895h242.21
	c27.004,0,48.895-21.891,48.895-48.895V140.629H41.001z"/>
<path style="fill:#F5C86E;" d="M305.042,430.919L305.042,430.919c-15.464,0-28-12.536-28-28v-159c0-15.464,12.536-28,28-28l0,0
	c15.464,0,28,12.536,28,28v159C333.042,418.383,320.506,430.919,305.042,430.919z"/>
<path style="fill:#F0F0FA;" d="M349.573,10.019c-20.856-0.234-39.558,8.965-52.145,23.581c-9.949-7.662-22.404-12.229-35.932-12.229
	c-15.551,0-29.686,6.031-40.221,15.868c-10.477-16.366-28.803-27.224-49.677-27.224c-32.523,0-58.893,26.335-58.955,58.843
	c-9.001-19.173-28.962-32.179-51.819-30.922c-27.517,1.513-49.677,24.034-50.779,51.57c-1.231,30.757,23.338,56.078,53.821,56.078
	c8.34,0,16.225-1.912,23.267-5.298c1.954,20.808,19.464,37.092,40.782,37.092c19.094,0,35.137-13.061,39.682-30.736
	c7.497,7.281,17.722,11.768,28.999,11.768c11.994,0,22.797-5.079,30.395-13.195c4.347,18.35,20.826,32.008,40.505,32.008
	c6.291,0,12.255-1.396,17.599-3.895c9.87-4.614,21.189,2.531,21.189,13.426v50.398c0,20.639,16.731,37.371,37.371,37.371l0,0
	c20.639,0,37.371-16.731,37.371-37.371v-73.989c0-13.915,5.456-27.329,15.364-37.1c12.63-12.455,20.395-29.83,20.186-49.018
	C416.178,40.412,386.205,10.43,349.573,10.019z"/>
<g>
	<path style="fill:#F5C86E;" d="M116.956,430.919L116.956,430.919c-15.464,0-28-12.536-28-28v-159c0-15.464,12.536-28,28-28l0,0
		c15.464,0,28,12.536,28,28v159C144.956,418.383,132.42,430.919,116.956,430.919z"/>
	<path style="fill:#F5C86E;" d="M211.001,430.919L211.001,430.919c-15.464,0-28-12.536-28-28v-159c0-15.464,12.536-28,28-28l0,0
		c15.464,0,28,12.536,28,28v159C239.001,418.383,226.465,430.919,211.001,430.919z"/>
</g>
<path d="M116.956,440.919c20.953,0,38-17.047,38-38v-159c0-20.953-17.047-38-38-38s-38,17.047-38,38v159
	C78.956,423.872,96.003,440.919,116.956,440.919z M98.956,243.919c0-9.925,8.075-18,18-18s18,8.075,18,18v159
	c0,9.925-8.075,18-18,18s-18-8.075-18-18C98.956,402.919,98.956,243.919,98.956,243.919z"/>
<path d="M249.001,402.919v-159c0-20.953-17.047-38-38-38s-38,17.047-38,38v159c0,20.953,17.047,38,38,38
	S249.001,423.872,249.001,402.919z M193.001,402.919v-159c0-9.925,8.075-18,18-18s18,8.075,18,18v159c0,9.925-8.075,18-18,18
	S193.001,412.844,193.001,402.919z"/>
<path d="M375.815,86.996c5.522-0.06,9.951-4.586,9.891-10.108c-0.214-19.675-16.395-35.86-36.069-36.081
	c-5.504-0.043-10.049,4.365-10.111,9.888c-0.062,5.522,4.365,10.049,9.888,10.111c8.888,0.099,16.197,7.411,16.294,16.299
	c0.06,5.486,4.525,9.891,9.997,9.891C375.74,86.997,375.779,86.997,375.815,86.996z"/>
<path d="M63.61,100.298c-2.359,0-4.56-0.938-6.195-2.64c-1.634-1.7-2.481-3.942-2.386-6.313c0.174-4.365,3.724-7.972,8.081-8.212
	c5.515-0.303,9.739-5.019,9.436-10.534c-0.303-5.514-5-9.739-10.534-9.436c-14.54,0.8-26.385,12.827-26.968,27.382
	c-0.314,7.86,2.508,15.307,7.949,20.969c5.442,5.665,12.764,8.784,20.617,8.784c5.523,0,10-4.477,10-10
	S69.133,100.298,63.61,100.298z"/>
<path d="M406.001,155.964h-14.348c1.481-8.64,5.579-16.688,11.759-22.781c15.169-14.959,23.396-34.935,23.165-56.247
	C426.12,34.995,391.627,0.49,349.686,0.02c-20.006-0.219-39.104,7.207-53.629,20.628c-10.457-6.092-22.248-9.277-34.56-9.277
	c-13.822,0-27.137,4.102-38.435,11.708C210.08,8.475,191.515,0.015,171.598,0.015c-29.439,0-54.656,18.58-64.519,44.63
	C94.652,33.21,77.927,26.98,60.275,27.951C27.807,29.737,1.354,56.599,0.053,89.106c-0.703,17.566,5.603,34.207,17.755,46.854
	c3.98,4.143,8.418,7.664,13.193,10.543v98.862c0,5.523,4.477,10,10,10s10-4.477,10-10v-91.064c4.184,0.848,8.488,1.283,12.866,1.283
	c5.467,0,10.82-0.68,16.012-2.029c7.031,19.94,25.911,33.824,48.038,33.824c18.462,0,35.052-9.894,44.014-25.225
	c7.491,4.085,15.925,6.256,24.666,6.256c9.219,0,18.236-2.506,26.09-7.101c8.994,15.758,25.85,25.914,44.81,25.914
	c7.625,0,14.972-1.627,21.834-4.836c2.217-1.038,4.042-0.139,4.725,0.296c0.833,0.53,2.23,1.764,2.23,4.072v20.195
	c-16.744,3.966-29.243,19.031-29.243,36.97v159c0,20.953,17.047,38,38,38s38-17.047,38-38v-86c0-5.522-4.477-10-10-10
	s-10,4.478-10,10v86c0,9.925-8.075,18-18,18s-18-8.075-18-18v-159c0-6.747,3.736-12.63,9.243-15.712v8.944
	c0,26.121,21.25,47.371,47.371,47.371c10.181,0,19.614-3.239,27.345-8.726V453.09c0,21.447-17.448,38.896-38.895,38.896H89.896
	c-21.447,0-38.895-17.448-38.895-38.896V327.919c0-5.522-4.477-10-10-10s-10,4.478-10,10V453.09
	c0,32.476,26.42,58.896,58.895,58.896h242.21c30.847,0,56.214-23.843,58.681-54.066h15.214c58.449,0,106-47.552,106-106v-89.956
	C512.001,203.515,464.449,155.964,406.001,155.964z M343.656,264.522c-15.092,0-27.371-12.278-27.371-27.371v-50.397
	c0-8.536-4.296-16.366-11.492-20.945c-4.074-2.593-8.697-3.906-13.348-3.906c-3.592,0-7.201,0.783-10.584,2.365
	c-4.192,1.96-8.688,2.954-13.364,2.954c-14.729,0-27.383-9.998-30.774-24.313c-0.849-3.585-3.601-6.413-7.161-7.359
	c-3.562-0.948-7.353,0.14-9.871,2.83c-6.054,6.468-14.256,10.029-23.094,10.029c-8.271,0-16.095-3.175-22.031-8.941
	c-2.557-2.484-6.243-3.418-9.674-2.453c-3.432,0.965-6.09,3.684-6.978,7.136c-3.517,13.676-15.852,23.227-29.997,23.227
	c-16.073,0-29.326-12.049-30.826-28.028c-0.306-3.258-2.187-6.161-5.036-7.771c-2.849-1.611-6.306-1.726-9.255-0.306
	c-5.946,2.86-12.316,4.31-18.933,4.31c-12.05,0-23.285-4.787-31.637-13.479c-8.346-8.687-12.676-20.122-12.192-32.198
	c0.893-22.317,19.05-40.759,41.336-41.985c18-0.993,34.57,8.896,42.218,25.187c1.99,4.237,6.651,6.526,11.22,5.513
	c4.569-1.015,7.823-5.063,7.832-9.743c0.051-26.943,22.012-48.862,48.955-48.862c16.767,0,32.189,8.455,41.254,22.615
	c1.601,2.5,4.229,4.16,7.175,4.531s5.903-0.586,8.073-2.613c9.1-8.498,20.959-13.177,33.396-13.177
	c10.891,0,21.207,3.511,29.831,10.152c4.207,3.24,10.213,2.626,13.679-1.397c11.17-12.97,27.353-20.283,44.455-20.107
	c31.155,0.349,56.777,25.979,57.117,57.135c0.172,15.834-5.939,30.675-17.208,41.788c-11.657,11.495-18.342,27.613-18.342,44.22
	l-0.026,75.009C370.462,252.792,358.406,264.522,343.656,264.522z M492.001,351.919c0,47.421-38.58,86-86,86h-15v-35.986h15
	c27.57,0,50-22.43,50-50c0-5.522-4.477-10-10-10s-10,4.478-10,10c0,16.542-13.458,30-30,30h-15l0.026-149.982h14.974
	c16.542,0,30,13.458,30,30c0,5.522,4.477,10,10,10s10-4.478,10-10c0-27.57-22.43-50-50-50h-14.974v-35.987h14.974
	c47.42,0,86,38.579,86,86V351.919z"/>
<path d="M446.001,300.919c-2.63,0-5.21,1.069-7.07,2.93c-1.86,1.86-2.93,4.44-2.93,7.07s1.07,5.21,2.93,7.069
	c1.86,1.86,4.44,2.931,7.07,2.931s5.21-1.07,7.07-2.931c1.86-1.859,2.93-4.439,2.93-7.069s-1.07-5.21-2.93-7.07
	S448.631,300.919,446.001,300.919z"/>
<path d="M41.001,296.919c2.63,0,5.21-1.07,7.07-2.931c1.86-1.859,2.93-4.439,2.93-7.069s-1.07-5.21-2.93-7.07s-4.44-2.93-7.07-2.93
	s-5.21,1.069-7.07,2.93c-1.86,1.86-2.93,4.44-2.93,7.07s1.07,5.21,2.93,7.069C35.791,295.849,38.37,296.919,41.001,296.919z"/>
<g>
</g>
<g>
</g>
<g>
</g>
<g>
</g>
<g>
</g>
<g>
</g>
<g>
</g>
<g>
</g>
<g>
</g>
<g>
</g>
<g>
</g>
<g>
</g>
<g>
</g>
<g>
</g>
<g>
</g>
</svg>
