<?xml version="1.0" encoding="iso-8859-1"?>
<!-- Generator: Adobe Illustrator 18.0.0, SVG Export Plug-In . SVG Version: 6.00 Build 0)  -->
<!DOCTYPE svg PUBLIC "-//W3C//DTD SVG 1.1//EN" "http://www.w3.org/Graphics/SVG/1.1/DTD/svg11.dtd">
<svg version="1.1" id="Capa_1" xmlns="http://www.w3.org/2000/svg" xmlns:xlink="http://www.w3.org/1999/xlink" x="0px" y="0px"
	 viewBox="0 0 228.08 228.08" style="enable-background:new 0 0 228.08 228.08;" xml:space="preserve">
<g>
	<path d="M114.054,159.842c-4.142,0-7.5,3.358-7.5,7.5v53.237c0,4.142,3.358,7.5,7.5,7.5c4.143,0,7.5-3.358,7.5-7.5v-53.237
		C121.554,163.2,118.197,159.842,114.054,159.842z"/>
	<path d="M71.069,146.403l-37.658,37.669c-2.929,2.93-2.928,7.678,0.001,10.607c1.465,1.464,3.384,2.196,5.303,2.196
		c1.92,0,3.839-0.732,5.304-2.197l37.658-37.669c2.929-2.93,2.928-7.678-0.002-10.607C78.745,143.473,73.996,143.473,71.069,146.403
		z"/>
	<path d="M157.034,146.452c-2.931-2.928-7.68-2.927-10.606,0.003c-2.929,2.93-2.927,7.679,0.003,10.607l37.641,37.617
		c1.465,1.463,3.383,2.195,5.302,2.195c1.919,0,3.841-0.733,5.305-2.198c2.929-2.93,2.927-7.679-0.003-10.607L157.034,146.452z"/>
</g>
</svg>
